<?xml version="1.0" standalone="no"?>
<!DOCTYPE svg PUBLIC "-//W3C//DTD SVG 20010904//EN"
 "http://www.w3.org/TR/2001/REC-SVG-20010904/DTD/svg10.dtd">
<svg version="1.0" xmlns="http://www.w3.org/2000/svg"
 width="890.000000pt" height="800.000000pt" viewBox="0 0 890.000000 800.000000"
 preserveAspectRatio="xMidYMid meet">

<g transform="translate(0.000000,800.000000) scale(0.100000,-0.100000)"
fill="#000000" stroke="none">
<path d="M8159 7391 c-62 -19 -47 -6 -605 -548 l-262 -253 -73 42 c-132 75
-411 205 -552 258 -400 149 -790 223 -1237 237 -516 15 -965 -80 -1415 -302
-310 -152 -549 -322 -793 -563 -238 -235 -403 -458 -617 -833 -213 -374 -376
-711 -696 -1440 -233 -532 -299 -673 -452 -968 -212 -407 -305 -534 -767
-1051 -217 -243 -245 -287 -238 -375 7 -81 48 -140 133 -192 180 -109 517
-262 809 -367 1136 -411 2668 -540 4091 -345 1147 157 1948 577 2400 1258 228
344 354 736 386 1202 34 496 -107 1036 -384 1474 -143 224 -372 476 -567 621
-399 298 -874 454 -1381 454 -370 0 -710 -92 -1008 -274 -502 -306 -838 -824
-867 -1339 -8 -128 10 -370 37 -501 84 -418 293 -697 655 -879 114 -57 253
-106 453 -158 l156 -41 165 5 c111 3 200 12 273 26 428 86 721 341 896 781 24
61 25 75 26 245 0 199 -10 259 -66 372 -57 118 -205 247 -330 288 -101 34
-208 -2 -265 -87 -84 -125 -36 -271 116 -348 51 -26 60 -35 76 -77 13 -34 18
-74 18 -140 0 -88 -2 -95 -46 -185 -130 -267 -322 -390 -654 -419 -111 -9
-130 -8 -210 11 -250 59 -457 146 -566 237 -186 155 -278 414 -278 781 0 300
123 567 379 823 354 353 811 488 1351 398 667 -111 1189 -555 1441 -1225 140
-374 164 -776 70 -1189 -187 -826 -877 -1383 -1976 -1599 -522 -102 -827 -87
-1289 65 -619 203 -1063 550 -1385 1084 -177 293 -306 699 -368 1161 -22 164
-25 646 -5 804 49 385 163 722 349 1025 116 188 186 288 282 403 406 485 928
787 1542 893 121 21 164 24 434 23 322 0 426 -9 675 -60 363 -75 733 -224
1095 -441 125 -75 133 -78 200 -81 59 -3 77 0 112 20 54 30 965 911 993 961
33 58 37 133 11 193 -29 64 -55 92 -116 120 -50 24 -107 29 -156 15z m-5874
-3874 c60 -566 239 -1108 493 -1492 238 -359 480 -605 805 -818 62 -41 138
-88 170 -106 32 -18 57 -34 55 -36 -2 -1 -70 2 -153 6 -950 50 -1834 246
-2507 556 l-107 50 139 157 c254 287 401 479 524 686 101 169 351 667 466 927
52 117 95 211 97 209 2 -2 10 -64 18 -139z"/>
</g>
</svg>
