<?xml version="1.0" standalone="no"?>
<!DOCTYPE svg PUBLIC "-//W3C//DTD SVG 20010904//EN"
 "http://www.w3.org/TR/2001/REC-SVG-20010904/DTD/svg10.dtd">
<svg version="1.0" xmlns="http://www.w3.org/2000/svg"
 width="581.000000pt" height="581.000000pt" viewBox="0 0 581.000000 581.000000"
 preserveAspectRatio="xMidYMid meet">

<g transform="translate(0.000000,581.000000) scale(0.100000,-0.100000)"
fill="#000000" stroke="none">
<path d="M4290 4155 c-10 -12 -10 -18 1 -31 13 -15 225 -183 289 -229 16 -11
61 -46 102 -77 40 -31 111 -86 158 -122 l84 -66 208 0 c114 0 208 2 208 4 0 4
-221 194 -310 266 -34 28 -41 40 -36 57 9 28 34 37 60 19 43 -28 283 -233 337
-287 67 -67 84 -109 76 -190 -4 -51 -10 -63 -42 -94 -35 -32 -37 -38 -31 -75
5 -31 1 -50 -15 -82 -70 -136 -76 -245 -18 -307 20 -21 28 -23 81 -17 33 3 64
8 68 11 5 3 0 26 -11 52 -31 74 -41 132 -34 210 6 65 9 72 31 77 15 4 31 20
42 42 15 32 15 38 1 62 -11 21 -13 36 -6 62 5 19 7 70 5 114 l-5 79 88 -6 c72
-6 91 -4 103 9 10 9 13 21 9 29 -5 8 -55 50 -113 94 -58 44 -159 122 -226 173
-66 51 -138 106 -160 123 -21 16 -59 46 -84 66 l-45 36 -401 7 c-353 6 -403 5
-414 -9z"/>
<path d="M666 4104 c-247 -45 -431 -204 -481 -416 -48 -205 23 -401 192 -531
83 -64 148 -98 317 -166 172 -70 240 -108 305 -171 83 -80 118 -200 92 -320
-34 -159 -175 -257 -384 -268 -170 -8 -346 35 -508 125 -3 2 -20 -45 -38 -104
l-32 -108 21 -17 c52 -42 238 -94 398 -111 185 -19 365 9 512 80 90 43 203
150 244 231 84 166 86 380 4 535 -69 129 -206 231 -445 331 -272 113 -363 177
-404 285 -43 116 -12 252 78 331 122 107 375 120 598 30 43 -17 79 -29 82 -27
2 2 19 50 38 106 l34 102 -54 24 c-152 68 -387 92 -569 59z"/>
<path d="M3023 4090 c-20 -8 -23 -17 -23 -60 0 -49 -1 -50 -30 -50 -27 0 -30
-3 -30 -30 0 -26 3 -30 29 -30 l29 0 4 -157 c2 -98 9 -166 16 -180 17 -30 63
-53 106 -53 52 0 66 9 66 42 0 26 -3 29 -23 24 -35 -8 -63 3 -76 30 -6 15 -11
81 -11 159 l0 135 55 0 c54 0 55 0 55 30 0 30 -1 30 -55 30 l-55 0 0 60 c0 65
-7 70 -57 50z"/>
<path d="M1614 3976 c-17 -8 -40 -26 -52 -40 l-21 -27 -3 33 c-3 29 -7 33 -35
36 l-33 3 0 -220 0 -221 40 0 40 0 0 150 c0 171 9 202 65 226 26 10 41 11 64
3 53 -19 61 -49 61 -224 l0 -155 40 0 40 0 0 153 c0 132 3 156 19 183 25 42
79 61 118 42 52 -24 63 -66 63 -230 l0 -148 41 0 41 0 -4 168 c-3 131 -8 174
-21 199 -50 94 -174 109 -245 29 l-29 -33 -16 27 c-31 53 -110 73 -173 46z"/>
<path d="M2295 3981 c-52 -13 -75 -30 -68 -49 11 -30 13 -31 48 -16 84 35 168
6 181 -62 l6 -31 -59 -6 c-90 -10 -134 -26 -169 -61 -55 -55 -57 -134 -5 -187
49 -49 144 -51 200 -4 36 31 41 31 41 0 0 -22 4 -25 36 -25 l36 0 -3 168 c-4
183 -12 211 -71 255 -30 23 -120 32 -173 18z m165 -266 c0 -72 -33 -113 -98
-122 -120 -16 -124 143 -3 163 20 3 41 7 46 9 6 2 20 4 33 4 20 1 22 -3 22
-54z"/>
<path d="M2813 3975 c-18 -8 -42 -29 -53 -47 l-20 -33 0 43 c0 41 0 42 -35 42
l-35 0 0 -220 0 -220 40 0 40 0 0 135 c0 149 10 192 53 220 14 9 38 18 54 19
24 3 28 8 31 40 3 32 1 36 -20 36 -13 -1 -38 -7 -55 -15z"/>
<path d="M4475 3858 c-3 -7 -20 -59 -39 -115 -44 -132 -40 -154 48 -238 80
-77 185 -136 328 -186 166 -57 336 -75 433 -45 39 11 40 12 37 54 -4 51 25
105 68 123 19 9 30 23 34 42 12 60 27 57 -238 57 l-243 0 -55 38 c-55 37 -87
62 -269 205 -64 50 -101 73 -104 65z"/>
<path d="M4020 3183 l0 -298 -20 31 c-82 128 -319 161 -479 67 -213 -124 -294
-469 -173 -727 43 -91 100 -149 190 -193 71 -36 81 -38 166 -37 138 1 234 46
306 145 l27 38 7 -52 c3 -29 6 -67 6 -84 l0 -33 81 0 c79 0 81 1 75 23 -3 12
-6 336 -6 720 l0 697 -90 0 -90 0 0 -297z m-160 -304 c60 -27 107 -74 136
-134 22 -46 24 -63 24 -211 0 -160 0 -161 -31 -223 -49 -97 -125 -145 -234
-145 -167 -1 -270 118 -282 324 -9 143 29 263 107 339 72 70 190 91 280 50z"/>
<path d="M1705 3276 l-80 -21 -3 -117 -3 -118 -74 0 -75 0 0 -65 0 -65 75 0
75 0 0 -298 c0 -307 7 -388 40 -453 50 -96 170 -137 320 -109 30 6 55 12 57
14 2 2 1 31 -3 65 l-7 61 -71 -3 c-85 -2 -118 14 -144 71 -15 32 -17 79 -17
342 l0 305 128 3 127 3 0 64 0 65 -130 0 -129 0 -3 138 -3 139 -80 -21z"/>
<path d="M2242 2673 c4 -297 7 -356 23 -403 37 -116 85 -177 171 -217 142 -65
313 -27 424 94 l48 52 6 -80 7 -79 75 0 74 0 0 490 0 490 -90 0 -90 0 0 -317
c0 -188 -4 -333 -10 -355 -38 -136 -209 -217 -335 -159 -49 22 -68 43 -97 106
-22 48 -23 60 -26 388 l-3 337 -91 0 -90 0 4 -347z"/>
<path d="M4389 2998 c5 -13 88 -220 185 -460 97 -241 176 -449 176 -464 0 -81
-138 -248 -247 -300 -34 -16 -62 -33 -62 -38 -1 -5 8 -39 19 -77 l21 -68 38
14 c191 67 311 214 446 549 46 113 187 479 310 804 l24 62 -93 0 -94 0 -101
-302 c-56 -167 -114 -343 -130 -393 l-28 -90 -26 85 c-14 47 -77 223 -139 392
l-113 308 -97 0 c-97 0 -97 0 -89 -22z"/>
</g>
</svg>
