<svg width="41" height="40" viewBox="0 0 41 40" fill="none" xmlns="http://www.w3.org/2000/svg">
<rect x="0.5" y="0.5" width="40" height="39" rx="19.5" fill="#B2DFDB"/>
<path d="M15.2031 23.1406C17.0469 22.3906 18.8125 22.0156 20.5 22.0156C22.1875 22.0156 23.9375 22.3906 25.75 23.1406C27.5938 23.8594 28.5156 24.8125 28.5156 26V28.0156H12.4844V26C12.4844 24.8125 13.3906 23.8594 15.2031 23.1406ZM23.3125 18.8281C22.5312 19.6094 21.5938 20 20.5 20C19.4062 20 18.4688 19.6094 17.6875 18.8281C16.9062 18.0469 16.5156 17.1094 16.5156 16.0156C16.5156 14.9219 16.9062 13.9844 17.6875 13.2031C18.4688 12.3906 19.4062 11.9844 20.5 11.9844C21.5938 11.9844 22.5312 12.3906 23.3125 13.2031C24.0938 13.9844 24.4844 14.9219 24.4844 16.0156C24.4844 17.1094 24.0938 18.0469 23.3125 18.8281Z" fill="white"/>
<rect x="0.5" y="0.5" width="40" height="39" rx="19.5" stroke="black"/>
</svg>
