<svg width="24" height="24" viewBox="0 0 24 24" fill="none" xmlns="http://www.w3.org/2000/svg">
<path d="M12 22C17.5228 22 22 17.5228 22 12C22 6.47715 17.5228 2 12 2C6.47715 2 2 6.47715 2 12C2 17.5228 6.47715 22 12 22Z" fill="#039BE5"/>
<path d="M6.51314 11.8756L16.2865 8.04686C16.7401 7.88036 17.1362 8.15929 16.9893 8.85621L16.9901 8.85535L15.326 16.821C15.2027 17.3857 14.8724 17.5231 14.4103 17.257L11.8762 15.3593L10.6539 16.5558C10.5188 16.6931 10.4047 16.809 10.1429 16.809L10.3228 14.1887L15.0194 9.87756C15.2238 9.69474 14.9738 9.59175 14.7043 9.77371L8.90029 13.4866L6.39826 12.6935C5.85511 12.5185 5.84328 12.1417 6.51314 11.8756Z" fill="white"/>
</svg>
