<svg width="24" height="24" viewBox="0 0 24 24" fill="none" xmlns="http://www.w3.org/2000/svg">
<path d="M2 22L3.72 16.8403C2.84724 15.3724 2.34483 13.6593 2.34483 11.8276C2.34483 6.4 6.74483 2 12.1724 2C17.6 2 22 6.4 22 11.8276C22 17.2552 17.6 21.6552 12.1724 21.6552C10.521 21.6552 8.96586 21.2459 7.6 20.5266L2 22Z" fill="#2CB742"/>
<path d="M18.4421 15.0986C17.9883 14.241 16.3149 13.2604 16.3149 13.2604C15.9363 13.0445 15.4794 13.0204 15.2635 13.4052C15.2635 13.4052 14.7197 14.0573 14.5814 14.151C13.9497 14.579 13.3645 14.5624 12.7739 13.9717L11.4011 12.599L10.0283 11.2262C9.43765 10.6355 9.42109 10.0504 9.84902 9.41863C9.94282 9.28036 10.5949 8.73656 10.5949 8.73656C10.9797 8.52036 10.9556 8.06381 10.7397 7.68518C10.7397 7.68518 9.75902 6.01174 8.90144 5.55794C8.53661 5.36484 8.08868 5.43243 7.79696 5.72415L7.19075 6.33036C5.26764 8.25346 6.21454 10.4245 8.13764 12.3476L9.89523 14.1052L11.6528 15.8628C13.5759 17.7859 15.747 18.7328 17.6701 16.8097L18.2763 16.2035C18.568 15.911 18.6352 15.4631 18.4421 15.0986Z" fill="white"/>
</svg>
